<?xml version="1.0" encoding="UTF-8"?>
<svg id="Layer_1" data-name="Layer 1" xmlns="http://www.w3.org/2000/svg" viewBox="0 0 21.9 30.64">
  <defs>
    <style>
      .cls-1 {
        fill: #b2c871;
      }

      .cls-2, .cls-3 {
        stroke: #10404b;
      }

      .cls-2, .cls-3, .cls-4 {
        stroke-width: .53px;
      }

      .cls-2, .cls-3, .cls-4, .cls-5, .cls-6 {
        stroke-linecap: round;
        stroke-linejoin: round;
      }

      .cls-2, .cls-4, .cls-5, .cls-6 {
        fill: none;
      }

      .cls-7 {
        fill: #fff;
      }

      .cls-3 {
        fill: #fabf2a;
      }

      .cls-8 {
        fill: #5f9240;
      }

      .cls-4 {
        stroke: #0f404b;
      }

      .cls-9 {
        fill: #6db1e0;
      }

      .cls-5 {
        stroke-width: .41px;
      }

      .cls-5, .cls-6 {
        stroke: #fff;
      }

      .cls-6 {
        stroke-width: .38px;
      }
    </style>
  </defs>
  <g id="Generative_Object" data-name="Generative Object">
    <g>
      <path class="cls-9" d="M6.22,23.57c3.41-.06,6.54-1.93,8.57-4.59.22-.29,1.15-1.64,1.2-1.91.02-.08,0-.3-.03-.38,0,0,.02-.02.03-.02.75-.64,1.43-1.47,1.9-2.34.98-1.84,1.09-4.26.34-6.19.06-.06.29,0,.32-.04.08-.11-.22-2.36-.26-2.67-.11-.76-.29-1.52-.47-2.26.23-.06.1-.12.18-.31,3.91,3.43,4.63,8.64,2.4,13.2-1.74,3.55-4.59,7.41-6.85,10.71-.67.99-1.54,2.49-2.29,3.34-.1.11-.17.2-.31.26l-.03-.03c-1.62-2.2-3.17-4.49-4.69-6.78Z"/>
      <path class="cls-1" d="M10.51,13.4c1.26,1.39,2.51,2.78,3.78,4.17.04.05.1.09.13.15-3.74,1.84-8.36.33-10.36-3.35.06-.06.11-.11.17-.17,1.18-1.27,2.28-2.61,3.48-3.86.96,1,1.87,2.04,2.81,3.07Z"/>
      <path class="cls-8" d="M17.88,14.32c-.46.87-1.15,1.7-1.9,2.34,0,0-.02.02-.03.02-.43.36-1.04.78-1.55,1.03-.03-.06-.08-.1-.13-.15-1.26-1.39-2.52-2.78-3.78-4.17.08,0,.11-.06.16-.11,1.09-1.05,2.02-2.41,3.13-3.46,1.37,1.39,2.57,2.96,3.92,4.37.05.05.1.12.17.13Z"/>
      <g>
        <path class="cls-7" d="M18.22,8.14c.75,1.93.64,4.35-.34,6.19-.07-.01-.12-.08-.17-.13-1.36-1.4-2.56-2.97-3.92-4.37-1.1,1.05-2.03,2.42-3.13,3.46-.05.05-.08.11-.16.11-.93-1.02-1.85-2.07-2.81-3.07-1.2,1.25-2.3,2.6-3.48,3.86-.05.06-.11.11-.17.17-.06-.11-.1-.24-.15-.36,0,0,0-.02,0-.03-1.06-2.35-.94-4.98.46-7.19,3.46-5.42,11.52-4.66,13.86,1.35Z"/>
        <path class="cls-3" d="M9.97,5.73c1.82-.21,2.27,2.68.29,2.92s-2.25-2.69-.29-2.92Z"/>
      </g>
    </g>
    <g>
      <path class="cls-4" d="M10.94,30.37c.14-.06.21-.15.31-.26.74-.85,1.61-2.36,2.29-3.34,2.26-3.3,5.11-7.16,6.85-10.71,2.23-4.56,1.51-9.78-2.4-13.2C12.62-1.84,4.05.1,1.15,6.64s1.7,11.87,5.07,16.93c1.52,2.28,3.07,4.58,4.69,6.78l.03.03Z"/>
      <line class="cls-5" x1="2.58" y1="7.23" x2="2.5" y2="7.41"/>
      <line class="cls-5" x1="4.4" y1="4.59" x2="2.9" y2="6.55"/>
      <path class="cls-2" d="M17.72,14.2c-1.36-1.4-2.56-2.97-3.92-4.37-1.1,1.05-2.03,2.42-3.13,3.46"/>
      <path class="cls-2" d="M3.9,14.01s0-.02,0-.03c-1.06-2.35-.94-4.98.46-7.19,3.46-5.42,11.52-4.66,13.86,1.35.75,1.93.64,4.35-.34,6.19-.46.87-1.15,1.7-1.9,2.34,0,0-.02.02-.03.02-.43.36-1.04.78-1.55,1.03-3.74,1.84-8.36.33-10.36-3.35-.06-.11-.1-.24-.15-.36Z"/>
      <path class="cls-2" d="M4.22,14.2c1.18-1.27,2.28-2.61,3.48-3.86.96,1,1.87,2.04,2.81,3.07,1.26,1.39,2.51,2.78,3.78,4.17"/>
      <line class="cls-6" x1="5.56" y1="3.61" x2="4.87" y2="4.18"/>
    </g>
  </g>
</svg>