<?xml version="1.0" encoding="UTF-8"?>
<svg id="Layer_1" data-name="Layer 1" xmlns="http://www.w3.org/2000/svg" viewBox="0 0 22.23 32">
  <defs>
    <style>
      .cls-1 {
        stroke: #2b4354;
      }

      .cls-1, .cls-2 {
        fill: none;
        stroke-linecap: round;
        stroke-linejoin: round;
        stroke-width: .68px;
      }

      .cls-3 {
        fill: #91d8f2;
      }

      .cls-2 {
        stroke: #2a4152;
      }

      .cls-4 {
        fill: #fff;
      }

      .cls-5 {
        fill: #fcbb69;
      }

      .cls-6 {
        fill: #30bcee;
      }

      .cls-7 {
        fill: #ffd390;
      }
    </style>
  </defs>
  <g id="Generative_Object" data-name="Generative Object">
    <g>
      <path class="cls-7" d="M18.82,3.58s-.05-.05-.07-.07c-1.07.34-1.96-1.06-3.03-1.22.44.85,1.72,1.72,1.41,2.76.02.02.03.04.05.05-.02-.02-.03-.04-.05-.05C12.34.22,3.45,2.89,2.69,9.66c-.05.45.03.77.04,1.19,0,.02,0,.05,0,.07.02.67.11,2.25.28,2.84,0,.03.09.04.1.07.11.37.21.7.4,1.04,2.87,5.08,9.88,5.91,13.87,1.7.02-.02.05-.04.07-.07.07.11.1.28.1.41.01.55-4.79,8.83-5.41,9.55-1.03,1.2-2.47.38-3.47-.41.33.51,2.51,4.24,2.75,4.32.15.05.48-.04.66,0-.19.27-.7,1.16-.97,1.22-.03,0-.05.03-.07.07-2.13-3.04-4.11-6.2-6.01-9.38C2.4,17.82-.84,13.57.77,8.13,3.1.27,12.95-2.32,18.75,3.51c.02.02.05.05.07.07Z"/>
      <path class="cls-5" d="M18.82,3.58c4.79,4.9,3.24,10.15.33,15.37-2.06,3.69-4.63,7.97-7.04,11.42-.18-.04-.51.05-.66,0-.24-.08-2.43-3.81-2.75-4.32,1,.79,2.44,1.61,3.47.41.62-.72,5.42-9,5.41-9.55,0-.13-.03-.3-.1-.41-.02.02-.05.04-.07.07.02-.02.05-.04.07-.07.47-.5.88-1.03,1.21-1.63.18-.33.31-.68.4-1.04l.11-.06c.31-.92.45-1.88.44-2.85,0-.4-.04-.79-.1-1.18l-.15.03.15-.03c-.28-1.75-1.09-3.37-2.33-4.63-.02-.02-.03-.04-.05-.05.3-1.04-.97-1.91-1.41-2.76,1.07.17,1.95,1.56,3.03,1.22.02.02.05.05.07.07Z"/>
      <g>
        <path class="cls-4" d="M17.19,5.1c1.23,1.26,2.05,2.88,2.33,4.63l-.15.03c-1.33.58-2.12-.76-3.33-.37-.39.12-.62.46-1.16.5-.73.06-1.21-.58-1.9-.6-.64-.01-1.11.54-1.7.6-.7.06-1.22-.57-1.84-.61s-1.15.54-1.77.6c-.74.07-1.23-.57-1.9-.58-.87-.02-1.77,1.05-2.92.39l-.15-.04C3.45,2.89,12.34.22,17.14,5.05c.02.02.03.04.05.05Z"/>
        <path class="cls-6" d="M18.67,14.87c-.33.6-.74,1.13-1.21,1.63-.02.02-.05.04-.07.07-3.99,4.21-11,3.38-13.87-1.7.75.28,1.5-.48,2.01-.54.76-.1,1.39.71,2.45.54.28-.04.74-.43,1.02-.48.9-.14,1.44.63,2.52.48.4-.06.88-.52,1.29-.54.81-.04,1.25.8,2.52.48.3-.08.67-.44,1.02-.48.71-.07,1.5.79,2.33.54Z"/>
        <path class="cls-6" d="M19.62,10.92c.02.97-.13,1.93-.44,2.85h-.09s-.05-.02-.08-.02c-.3-.02-.82-.02-1.08-.09-.47-.13-.85-.5-1.36-.53-.65-.03-1.12.49-1.7.57-.73.1-1.16-.48-1.84-.54-.72-.07-1.09.45-1.7.54-.85.13-1.46-.74-2.38-.5-.35.09-.66.39-1.02.48-.93.23-1.45-.58-2.24-.54-.62.03-1.75.79-2.58.7,0-.03-.09-.04-.1-.07-.17-.59-.26-2.17-.28-2.84,0-.02,0-.05,0-.07.52-.03.9.25,1.44.2.42-.04.96-.5,1.29-.54.78-.11,1.38.62,2.31.54.49-.04.88-.49,1.29-.54.8-.11,1.39.62,2.31.54.47-.04.89-.49,1.29-.54.77-.11,1.38.62,2.31.54.5-.04.88-.48,1.29-.54.74-.11,1.2.49,1.9.54.49.04.95-.19,1.45-.14Z"/>
        <path class="cls-3" d="M19.36,9.77l.15-.03c.06.39.1.79.1,1.18-.5-.05-.95.18-1.45.14-.7-.05-1.16-.65-1.9-.54-.41.06-.79.51-1.29.54-.93.07-1.54-.66-2.31-.54-.4.06-.83.5-1.29.54-.92.08-1.52-.66-2.31-.54-.41.06-.8.5-1.29.54-.93.08-1.53-.66-2.31-.54-.33.05-.87.5-1.29.54-.54.05-.92-.24-1.44-.2,0,.02,0,.05,0,.07,0-.02,0-.05,0-.07-.01-.43-.09-.74-.04-1.19l.15.04c1.16.66,2.05-.42,2.92-.39.68.02,1.17.65,1.9.58.61-.06,1.13-.65,1.77-.6s1.14.68,1.84.61c.59-.05,1.06-.61,1.7-.6.69.01,1.17.66,1.9.6.53-.04.77-.38,1.16-.5,1.21-.39,2,.94,3.33.37Z"/>
        <path class="cls-3" d="M19.18,13.76l-.11.06c-.09.37-.22.71-.4,1.04-.83.24-1.62-.61-2.33-.54-.35.03-.72.4-1.02.48-1.26.32-1.7-.51-2.52-.48-.41.02-.89.49-1.29.54-1.08.15-1.61-.62-2.52-.48-.28.04-.74.43-1.02.48-1.06.17-1.69-.64-2.45-.54-.51.07-1.26.83-2.01.54-.19-.34-.29-.67-.4-1.04.83.09,1.96-.68,2.58-.7.8-.04,1.32.77,2.24.54.36-.09.67-.39,1.02-.48.92-.24,1.53.63,2.38.5.61-.09.98-.61,1.7-.54.67.06,1.11.64,1.84.54.58-.08,1.05-.6,1.7-.57.51.03.89.4,1.36.53.26.07.78.06,1.08.09.03,0,.05,0,.08,0h.09Z"/>
      </g>
    </g>
    <g>
      <path class="cls-1" d="M11.06,31.66s.04-.06.07-.07c.27-.06.78-.96.97-1.22,2.42-3.46,4.98-7.73,7.04-11.42,2.92-5.22,4.47-10.47-.33-15.37-.02-.02-.05-.05-.07-.07C12.95-2.32,3.1.27.77,8.13c-1.61,5.43,1.63,9.68,4.28,14.14,1.9,3.19,3.88,6.35,6.01,9.38Z"/>
      <path class="cls-2" d="M19.36,9.77c-1.33.58-2.12-.76-3.33-.37-.39.12-.62.46-1.16.5-.73.06-1.21-.58-1.9-.6-.64-.01-1.11.54-1.7.6-.7.06-1.22-.57-1.84-.61s-1.15.54-1.77.6c-.74.07-1.23-.57-1.9-.58-.87-.02-1.77,1.05-2.92.39"/>
      <path class="cls-2" d="M19.09,13.75s-.05,0-.08,0c-.3-.02-.82-.02-1.08-.09-.47-.13-.85-.5-1.36-.53-.65-.03-1.12.49-1.7.57-.73.1-1.16-.48-1.84-.54-.72-.07-1.09.45-1.7.54-.85.13-1.46-.74-2.38-.5-.35.09-.66.39-1.02.48-.93.23-1.45-.58-2.24-.54-.62.03-1.75.79-2.58.7.11.37.21.7.4,1.04,2.87,5.08,9.88,5.91,13.87,1.7.02-.02.05-.04.07-.07.47-.5.88-1.03,1.21-1.63.18-.33.31-.68.4-1.04l.02-.07h0Z"/>
      <path class="cls-2" d="M19.18,13.76c.31-.92.45-1.88.44-2.85,0-.4-.04-.79-.1-1.18-.28-1.75-1.09-3.37-2.33-4.63-.02-.02-.03-.04-.05-.05C12.34.22,3.45,2.89,2.69,9.66c-.05.45.03.77.04,1.19,0,.02,0,.05,0,.07.02.67.11,2.25.28,2.84"/>
    </g>
  </g>
</svg>